<svg id="Capa_1" data-name="Capa 1" xmlns="http://www.w3.org/2000/svg" viewBox="0 0 1032.94 799.97"><defs><style>.cls-1{fill:#fff;}</style></defs><title>gel</title><path class="cls-1" d="M966.94,977H-66V177H966.94ZM390.24,345.71a246.27,246.27,0,0,0-62.13,11.43c-15,4.9-21,15.66-21.4,30.39a98.66,98.66,0,0,0,1,14.44c2.16,18.25,1.34,34.35-16.59,46.53S262.69,479,261.4,501.07A140,140,0,0,0,263.51,535c9.15,48.37,31.2,89.87,66.59,124.53,32.58,31.91,57.28,69.2,72.09,112.64,5.41,15.88,16,27,31.88,32.09a390.56,390.56,0,0,0,38.76,10.39c39.11,8.25,78.86,10.35,118.7,12.43,36.29,1.89,72.15-.34,108-5.5,15.5-2.23,23-9.86,26.46-24.93,5.71-25.24,14-49.51,31.15-69.49,9.44-11,20.28-20.79,30.38-31.22,28.37-29.31,52.92-61.36,67.16-100C869.33,556,867.1,518.18,837.1,485c-4.58-5.06-9-10.23-13.44-15.45-20.76-24.7-23.81-53.24-18.46-83.77,3.13-17.94-5.4-32.78-22.62-38.08a104.13,104.13,0,0,0-29.29-4.9c-27-.22-54.08,1-81.12,1.23Q531.22,345.05,390.24,345.71Z" transform="translate(66 -177)"/><path d="M390.24,345.71q141-.79,281.93-1.65c27-.19,54.08-1.45,81.12-1.23a104.13,104.13,0,0,1,29.29,4.9c17.22,5.3,25.75,20.14,22.62,38.08-5.35,30.53-2.3,59.07,18.46,83.77,4.4,5.22,8.86,10.39,13.44,15.45,30,33.15,32.23,70.93,17.53,110.86-14.24,38.65-38.79,70.7-67.16,100-10.1,10.43-20.94,20.23-30.38,31.22-17.15,20-25.44,44.25-31.15,69.49-3.42,15.07-11,22.7-26.46,24.93-35.8,5.16-71.66,7.39-108,5.5-39.84-2.08-79.59-4.18-118.7-12.43a390.56,390.56,0,0,1-38.76-10.39c-15.92-5.13-26.47-16.21-31.88-32.09-14.81-43.44-39.51-80.73-72.09-112.64-35.39-34.66-57.44-76.16-66.59-124.53a140,140,0,0,1-2.11-33.89c1.29-22.07,11.89-40.44,29.74-52.57s18.75-28.28,16.59-46.53a98.66,98.66,0,0,1-1-14.44c.43-14.73,6.39-25.49,21.4-30.39A246.27,246.27,0,0,1,390.24,345.71ZM281.73,515.92c0,6.16-1.09,11,.19,15.05,5.35,17,10.28,34.31,17.44,50.59,15.2,34.59,42.26,60.39,67.85,87.12,12.32,12.87,22.67,26.86,29.76,43.38,6.33,14.75,17.07,25.49,32.86,30.27,33.84,10.27,68.91,12.31,103.81,13.5,32.11,1.11,64.34-.3,96.48-1.46,22.7-.83,45.41-2.53,68-4.89,16.07-1.67,28.12-11.21,35.91-24.91,6-10.59,14.45-18.67,22.3-27.62,18.91-21.56,35.74-44.94,54.38-66.75,16.51-19.31,25.8-41.18,29.4-66.1,3.07-21.25-8.38-33.8-29.75-31.1-13.28,1.67-26.44,4.24-39.74,5.64-37,3.88-74.06,9.23-111.2,10.52-43.77,1.53-87.68-.31-131.52-1.23Q490,547.12,452,544.55a812,812,0,0,1-142.45-22C300.82,520.39,292,518.37,281.73,515.92Zm58.15-90.6,3.55-.53q.39-11.6.79-23.17c.18-5.7,2.7-9.3,8.78-9.24,5.84.05,10,2.39,10.22,8.92.15,4.84-.75,9.84.19,14.49,1.53,7.69,3.3,15.6,6.77,22.52,1.37,2.73,7.74,4.47,11.46,4,2.19-.3,4.89-5.83,5.14-9.17.39-5.28-1-10.71-1.81-16.05-1-6.53-.5-12.28,7.62-13.54,6.62-1,10.7,2.84,11.78,11.39.82,6.48,1.26,13,1.58,19.54.62,12.55,6.84,17,23.48,16.66,8.21-.18,11.88-5.18,12.39-16.08a109.25,109.25,0,0,1,2-18.54c.55-2.5,3.69-4.43,5.66-6.62,2.21,2,5.72,3.67,6.4,6.11A99.71,99.71,0,0,1,459,435.15c.64,8.7,3.41,15.46,12.54,18.22,16.3,4.93,31.47-8.08,29.33-25.14-.56-4.5-1.18-9.13-.62-13.56.34-2.74,2.35-6.6,4.54-7.39,1.95-.7,6.3,1.42,7.6,3.52A34.85,34.85,0,0,1,517.13,424c.85,6.16,0,12.53.58,18.76.59,6.95,5.41,11.67,11.75,11.15,4-.32,9.75-4.56,11.1-8.33,2.51-7,3.22-14.95,3.08-22.47-.11-5.93-1.08-11.33,6.66-12s9.8,4.94,10,11.07a133.8,133.8,0,0,1-1.17,17.86c-.89,8.22,2.68,13.34,10.57,14.62,10.09,1.64,18-2.52,20.21-12.4,1.81-7.93,1.58-16.32,2.3-24.5.49-5.53,1-11.79,8.37-11.57,6.73.21,7.19,6,7.46,11.39.37,7.38,1,14.74,1.62,22.11.66,8,5.75,11.4,13,12.08,8.13.76,13.17-2.78,14.61-10.9,1-5.56.42-11.37,1.2-17,1-7.57,1.91-15.34,4.51-22.42,1.11-3,6.41-4.52,9.8-6.71,1.51,3.3,3.68,6.48,4.34,9.94.55,2.92-.57,6.18-1.09,9.26a32.51,32.51,0,0,0,7.33,27.15c6.67,8.11,16.4,7,20.13-2.74,1.7-4.41,2.27-9.34,2.82-14.1.52-4.51-.63-9.43.76-13.55,1.21-3.58,5-6.3,7.58-9.4,2.61,2.61,6.72,4.84,7.53,7.93,1.94,7.33,2.47,15.06,3.3,22.66,1.18,10.71,8.13,15.54,16.91,10.6,3.89-2.19,8.31-6.54,9-10.54a57.43,57.43,0,0,0-.71-21.45c-1.8-8.67-2.63-16.6,3.49-24.47,8.73,4.8,13.81,11.6,15.23,20.82a177.46,177.46,0,0,1,2,21.2c.21,6.23,2.57,7.77,8.59,6.46,20-4.36,28.1-15.88,27.24-39.68-.61-17-11.25-27.36-30.15-30-29.19-4.07-58.35-3.59-87.73-2-34.67,1.82-69.45,1.81-104.18,2-57.85.31-115.72-.61-173.54.68-16.67.37-33.42,5.78-49.75,10.26-10.23,2.81-17.4,10.67-17.55,21.87C324.25,409.55,331.42,418,339.88,425.32Zm-4.78,30.5c-20.79-1-31.6,4.95-40.1,15.58-13,16.29-11.39,23.62,8.91,29.75,19.29,5.84,39,11.2,59,13.65,43.16,5.3,86.5,10,129.9,12.34,45.11,2.43,90.43,3.44,135.55,2,42.57-1.4,85-6.83,127.5-10.52,20-1.74,39.3-6.41,57.39-15.46,4.38-2.19,6.95-4.3,3.93-9.79-11.1-20.11-28.82-29.1-50.81-28.6-35.82.8-71.6,3-107.4,4.5-43.2,1.78-86.4,3.72-129.62,5a415.74,415.74,0,0,1-45.18-1.54c-36.55-2.89-73.1-5.92-109.56-9.78C359.08,461.26,343.81,457.42,335.1,455.82Zm88.7,305.75c-.25.85-.5,1.7-.76,2.55,12.44,18.32,29.87,28.81,51.71,32.46,55.64,9.28,111.46,17.36,168,12.3,17.44-1.56,34.7-6.21,51.79-10.44,9.14-2.26,12.31-10.16,10.46-20.6-1.6-9-8.58-7.64-14.71-7.68-4,0-7.94.49-11.92.79-19.27,1.47-38.52,3.66-57.83,4.21-17,.48-34.11-.88-51.17-1.39-22.76-.68-45.55-.76-68.27-2.18-16.14-1-32.19-3.72-48.26-5.81C443.18,764.51,433.5,763,423.8,761.57Z" transform="translate(66 -177)"/><path class="cls-1" d="M281.73,515.92c10.28,2.45,19.09,4.47,27.85,6.66a812,812,0,0,0,142.45,22q37.89,2.54,75.87,3.38c43.84.92,87.75,2.76,131.52,1.23,37.14-1.29,74.16-6.64,111.2-10.52,13.3-1.4,26.46-4,39.74-5.64,21.37-2.7,32.82,9.85,29.75,31.1-3.6,24.92-12.89,46.79-29.4,66.1C792.07,652,775.24,675.39,756.33,697c-7.85,8.95-16.27,17-22.3,27.62-7.79,13.7-19.84,23.24-35.91,24.91-22.59,2.36-45.3,4.06-68,4.89-32.14,1.16-64.37,2.57-96.48,1.46-34.9-1.19-70-3.23-103.81-13.5C414,737.55,403.3,726.81,397,712.06c-7.09-16.52-17.44-30.51-29.76-43.38-25.59-26.73-52.65-52.53-67.85-87.12C292.2,565.28,287.27,548,281.92,531,280.64,526.9,281.73,522.08,281.73,515.92Zm93.07,60.55c.24-10.94-2-15-8.09-14.81-7,.25-10.79,6-10.45,15.75a33.54,33.54,0,0,0,.37,4.24c3.53,22.58,15.58,41.29,27.6,60,3.4,5.28,8.94,5.08,13.55,1.82s4.49-8.12,1.25-12.77c-4.4-6.29-8.84-12.56-13.1-18.94C378.81,601.06,374.72,589.41,374.8,576.47ZM431.16,642l3.18-1.45a18.43,18.43,0,0,0,1.46-3.78c2.72-17.7-6.14-31.9-14.57-46-1-1.63-6.59-2.49-8.18-1.27-2.42,1.87-4.93,6.22-4.37,8.87A79.29,79.29,0,0,0,416,619.15C420.33,627.16,426.05,634.41,431.16,642Z" transform="translate(66 -177)"/><path class="cls-1" d="M339.88,425.32c-8.46-7.28-15.63-15.77-15.46-27.67.15-11.2,7.32-19.06,17.55-21.87,16.33-4.48,33.08-9.89,49.75-10.26,57.82-1.29,115.69-.37,173.54-.68,34.73-.19,69.51-.18,104.18-2,29.38-1.55,58.54-2,87.73,2,18.9,2.63,29.54,13,30.15,30,.86,23.8-7.22,35.32-27.24,39.68-6,1.31-8.38-.23-8.59-6.46a177.46,177.46,0,0,0-2-21.2c-1.42-9.22-6.5-16-15.23-20.82-6.12,7.87-5.29,15.8-3.49,24.47a57.43,57.43,0,0,1,.71,21.45c-.73,4-5.15,8.35-9,10.54-8.78,4.94-15.73.11-16.91-10.6-.83-7.6-1.36-15.33-3.3-22.66-.81-3.09-4.92-5.32-7.53-7.93-2.62,3.1-6.37,5.82-7.58,9.4-1.39,4.12-.24,9-.76,13.55-.55,4.76-1.12,9.69-2.82,14.1-3.73,9.7-13.46,10.85-20.13,2.74A32.51,32.51,0,0,1,656,414c.52-3.08,1.64-6.34,1.09-9.26-.66-3.46-2.83-6.64-4.34-9.94-3.39,2.19-8.69,3.68-9.8,6.71-2.6,7.08-3.46,14.85-4.51,22.42-.78,5.61-.21,11.42-1.2,17-1.44,8.12-6.48,11.66-14.61,10.9-7.3-.68-12.39-4.12-13-12.08C609,432.34,608.37,425,608,417.6c-.27-5.4-.73-11.18-7.46-11.39-7.35-.22-7.88,6-8.37,11.57-.72,8.18-.49,16.57-2.3,24.5-2.25,9.88-10.12,14-20.21,12.4-7.89-1.28-11.46-6.4-10.57-14.62a133.8,133.8,0,0,0,1.17-17.86c-.16-6.13-2.31-11.69-10-11.07s-6.77,6-6.66,12c.14,7.52-.57,15.47-3.08,22.47-1.35,3.77-7.06,8-11.1,8.33-6.34.52-11.16-4.2-11.75-11.15-.53-6.23.27-12.6-.58-18.76a34.85,34.85,0,0,0-4.77-13.19c-1.3-2.1-5.65-4.22-7.6-3.52-2.19.79-4.2,4.65-4.54,7.39-.56,4.43.06,9.06.62,13.56,2.14,17.06-13,30.07-29.33,25.14-9.13-2.76-11.9-9.52-12.54-18.22A99.71,99.71,0,0,0,455.92,416c-.68-2.44-4.19-4.09-6.4-6.11-2,2.19-5.11,4.12-5.66,6.62a109.25,109.25,0,0,0-2,18.54c-.51,10.9-4.18,15.9-12.39,16.08-16.64.37-22.86-4.11-23.48-16.66-.32-6.53-.76-13.06-1.58-19.54-1.08-8.55-5.16-12.41-11.78-11.39-8.12,1.26-8.57,7-7.62,13.54.79,5.34,2.2,10.77,1.81,16.05-.25,3.34-2.95,8.87-5.14,9.17-3.72.51-10.09-1.23-11.46-4-3.47-6.92-5.24-14.83-6.77-22.52-.94-4.65,0-9.65-.19-14.49-.2-6.53-4.38-8.87-10.22-8.92-6.08-.06-8.6,3.54-8.78,9.24q-.39,11.58-.79,23.17Z" transform="translate(66 -177)"/><path class="cls-1" d="M335.1,455.82c8.71,1.6,24,5.44,39.48,7.07,36.46,3.86,73,6.89,109.56,9.78a415.74,415.74,0,0,0,45.18,1.54c43.22-1.26,86.42-3.2,129.62-5,35.8-1.49,71.58-3.7,107.4-4.5,22-.5,39.71,8.49,50.81,28.6,3,5.49.45,7.6-3.93,9.79-18.09,9-37.35,13.72-57.39,15.46-42.49,3.69-84.93,9.12-127.5,10.52-45.12,1.48-90.44.47-135.55-2-43.4-2.33-86.74-7-129.9-12.34-19.93-2.45-39.68-7.81-59-13.65C283.61,495,282,487.69,295,471.4,303.5,460.77,314.31,454.81,335.1,455.82Z" transform="translate(66 -177)"/><path class="cls-1" d="M423.8,761.57c9.7,1.41,19.38,2.94,29.09,4.21,16.07,2.09,32.12,4.8,48.26,5.81,22.72,1.42,45.51,1.5,68.27,2.18,17.06.51,34.14,1.87,51.17,1.39,19.31-.55,38.56-2.74,57.83-4.21,4-.3,8-.81,11.92-.79,6.13,0,13.11-1.3,14.71,7.68,1.85,10.44-1.32,18.34-10.46,20.6-17.09,4.23-34.35,8.88-51.79,10.44-56.59,5.06-112.41-3-168-12.3-21.84-3.65-39.27-14.14-51.71-32.46C423.3,763.27,423.55,762.42,423.8,761.57Z" transform="translate(66 -177)"/><path d="M374.81,576.47c-.09,12.94,4,24.59,11.12,35.24,4.26,6.38,8.7,12.65,13.1,18.94,3.24,4.65,3.49,9.41-1.25,12.77s-10.15,3.46-13.55-1.82c-12-18.66-24.07-37.37-27.6-60a33.54,33.54,0,0,1-.37-4.24c-.34-9.8,3.45-15.5,10.45-15.75C372.81,561.44,375,565.53,374.81,576.47Z" transform="translate(66 -177)"/><path d="M431.16,642c-5.11-7.57-10.83-14.82-15.13-22.83a79.29,79.29,0,0,1-7.35-20.84c-.56-2.65,1.95-7,4.37-8.87,1.59-1.22,7.21-.36,8.18,1.27,8.43,14.14,17.29,28.34,14.57,46a18.43,18.43,0,0,1-1.46,3.78Z" transform="translate(66 -177)"/></svg>