<svg id="Capa_1" data-name="Capa 1" xmlns="http://www.w3.org/2000/svg" viewBox="0 0 743 962"><defs><style>.cls-1{fill:#fff;}</style></defs><title>peine</title><path class="cls-1" d="M911,1046H168V84H911ZM263.93,268.54c0,3.16-.05,6.33,0,9.49a25.78,25.78,0,0,0,.55,3.45c4.92,30.45,16,58.85,30.4,85.83,13.6,25.56,27.61,51.06,43.61,75.16,22.27,33.55,46,66.18,70.17,98.41,19,25.3,39.72,49.24,59.33,74.06,27.46,34.75,54.55,69.81,81.9,104.66,29.6,37.73,59.63,75.12,88.89,113.11,23.68,30.75,47.21,61.56,73.49,90.18,15,16.36,30.31,32.39,50.16,43.07,13.62,7.32,27.76,13,43.69,12.2,15.31-.76,26.39-8.9,28.37-22.48a45.93,45.93,0,0,0-1.42-19.19,193.53,193.53,0,0,0-26.41-54.14c-13.44-19.47-27-38.87-41.12-57.84-13.42-18-27.52-35.52-41.56-53.06-10.6-13.24-22.73-25.41-32.16-39.4A1089.93,1089.93,0,0,0,610,624.94a341,341,0,0,1-28-37,51.46,51.46,0,0,1-8.13-37.69c2.3-13.56,9.11-24.92,16.56-36,11.88-17.69,28.27-30.87,44.58-44.09,7.11-5.75,14.43-11.23,21.57-16.94,4.35-3.48,8.28-7.55,12.86-10.66,7-4.71,8.59-9.84,4.59-17.29-6.18-11.53-22.44-19.22-35.35-16.8a65.36,65.36,0,0,0-35.87,19.59c-13.48,14.24-25.94,29.47-38.59,44.48a133.31,133.31,0,0,1-43.86,34.09c-10.64,5.22-21,4.28-30.39-3.43-2.52-2.06-3.7-4.45-2-7.4,3.45-6,6.29-12.72,10.89-17.76,7.37-8.06,15.89-15.07,24-22.4,15.48-13.91,30.8-28,46.64-41.48,10.76-9.16,22.28-17.43,33.49-26.06,2.63-2,5.1-4.09,3.31-7.87-2.06-4.38-6.88-6.63-11.32-4.62a38,38,0,0,0-9.45,6.33c-10.18,9.09-20.09,18.47-30.19,27.64q-29.22,26.51-58.57,52.87c-6.31,5.66-12.67,11.32-19.4,16.45-5.39,4.12-9.31,3.21-13.15-2.17-6-8.4-12-16.83-17.83-25.34-4-5.88-3.52-10,1.61-15.08,1.3-1.29,2.65-2.54,4-3.73,15.92-13.66,31.75-27.42,47.8-40.92,20.24-17,41.66-32.18,66.7-41.55,2.58-1,5.54-2.39,7-4.51s2.22-5.76,1.38-8-4-5-6.24-5.19c-3.15-.21-6.76,1.3-9.62,3-6.58,3.91-12.91,8.25-19.17,12.66-18.36,12.95-37.17,25.36-54.8,39.25-15.78,12.44-29.65,27.26-47.24,37.49-6.47,3.76-10,3.52-14.55-2.42Q416,412.88,409,403.18c-6.09-8.33-5.58-12.55,3.38-17.87,20.89-12.42,38.85-28.62,57.65-43.75,16.45-13.24,33.8-25.09,54.47-30.66,7.34-2,12.24-6.52,16.75-11.87,2.53-3,4-6.61,1.71-10.61-3.15-5.46-8.85-6-14.25-.6-11.25,11.35-25.3,18.25-39.08,25.66-13.12,7.06-25.66,15.13-35.67,26.22-14.53,16.13-33.24,25.83-52,35.61-4.57,2.39-9.15,1.45-12.23-2.39-4-5-8.15-10.26-10.69-16.08-5-11.42-4.37-12.29,5.28-19.6l.39-.31c34.06-26.92,71.05-49.47,107.75-72.47,2.66-1.67,6.15-2.95,7.58-5.39s1.58-6.34.71-9.11c-1.1-3.47-4.76-4.86-8.29-3.51s-7.42,2.82-9.86,5.45C472.26,263,460,271.46,447.19,279.39c-15,9.3-30.49,18.05-44.19,29-8.85,7.09-18.35,12.28-28.08,17.51-4.41,2.37-8.27,2.44-11.39-1.94-5.2-7.28-10.7-14.39-15.37-22-4.84-7.87-3.85-10.41,4.22-15.15q54.94-32.24,109.9-64.5a104.39,104.39,0,0,0,15.62-10.69c1.9-1.65,3.05-5.83,2.38-8.26-.61-2.16-4-4.45-6.53-4.9-2.18-.39-5.44,1.09-7.12,2.81-8.42,8.65-19.11,13.75-29.21,19.87-18.37,11.13-36.3,23-54.53,34.35-11.16,7-22.42,13.79-33.83,20.32-7.69,4.4-14.34,2.22-17.38-5.2-2.25-5.49-.41-10.19,3.52-14.1,4.71-4.7,9.62-9.21,14.51-13.72,14.89-13.72,30.27-27,49.7-33.7,16.14-5.57,30.13-13.9,41.91-26.17,6.26-6.52,12.43-13,14.94-22.08,2.89-10.41-1.42-18.71-11.71-21.94-8.36-2.62-16.1-.71-23.44,3.61q-47.39,27.9-94.76,55.76C314,205.53,301.07,211.92,289.28,220,272.47,231.43,263,247.49,263.93,268.54Z" transform="translate(-168 -84)"/><path d="M263.93,268.54c-.89-21.05,8.54-37.11,25.35-48.58,11.79-8,24.72-14.43,37.07-21.67q47.4-27.82,94.76-55.76c7.34-4.32,15.08-6.23,23.44-3.61,10.29,3.23,14.6,11.53,11.71,21.94-2.51,9.06-8.68,15.56-14.94,22.08-11.78,12.27-25.77,20.6-41.91,26.17-19.43,6.69-34.81,20-49.7,33.7-4.89,4.51-9.8,9-14.51,13.72-3.93,3.91-5.77,8.61-3.52,14.1,3,7.42,9.69,9.6,17.38,5.2,11.41-6.53,22.67-13.35,33.83-20.32,18.23-11.37,36.16-23.22,54.53-34.35,10.1-6.12,20.79-11.22,29.21-19.87,1.68-1.72,4.94-3.2,7.12-2.81,2.5.45,5.92,2.74,6.53,4.9.67,2.43-.48,6.61-2.38,8.26a104.39,104.39,0,0,1-15.62,10.69q-54.9,32.35-109.9,64.5c-8.07,4.74-9.06,7.28-4.22,15.15,4.67,7.61,10.17,14.72,15.37,22,3.12,4.38,7,4.31,11.39,1.94,9.73-5.23,19.23-10.42,28.08-17.51,13.7-11,29.2-19.72,44.19-29,12.79-7.93,25.07-16.35,35.4-27.49,2.44-2.63,6.36-4.11,9.86-5.45s7.19,0,8.29,3.51c.87,2.77.7,6.7-.71,9.11s-4.92,3.72-7.58,5.39c-36.7,23-73.69,45.55-107.75,72.47l-.39.31c-9.65,7.31-10.28,8.18-5.28,19.6,2.54,5.82,6.66,11.06,10.69,16.08,3.08,3.84,7.66,4.78,12.23,2.39,18.75-9.78,37.46-19.48,52-35.61,10-11.09,22.55-19.16,35.67-26.22,13.78-7.41,27.83-14.31,39.08-25.66,5.4-5.44,11.1-4.86,14.25.6,2.31,4,.82,7.61-1.71,10.61-4.51,5.35-9.41,9.89-16.75,11.87-20.67,5.57-38,17.42-54.47,30.66-18.8,15.13-36.76,31.33-57.65,43.75-9,5.32-9.47,9.54-3.38,17.87q7.08,9.69,14.38,19.19c4.58,5.94,8.08,6.18,14.55,2.42,17.59-10.23,31.46-25.05,47.24-37.49,17.63-13.89,36.44-26.3,54.8-39.25,6.26-4.41,12.59-8.75,19.17-12.66,2.86-1.71,6.47-3.22,9.62-3,2.28.15,5.38,2.9,6.24,5.19s0,5.91-1.38,8-4.4,3.54-7,4.51c-25,9.37-46.46,24.54-66.7,41.55-16.05,13.5-31.88,27.26-47.8,40.92-1.39,1.19-2.74,2.44-4,3.73-5.13,5.12-5.65,9.2-1.61,15.08,5.85,8.51,11.82,16.94,17.83,25.34,3.84,5.38,7.76,6.29,13.15,2.17,6.73-5.13,13.09-10.79,19.4-16.45q29.37-26.34,58.57-52.87c10.1-9.17,20-18.55,30.19-27.64a38,38,0,0,1,9.45-6.33c4.44-2,9.26.24,11.32,4.62,1.79,3.78-.68,5.84-3.31,7.87-11.21,8.63-22.73,16.9-33.49,26.06-15.84,13.48-31.16,27.57-46.64,41.48-8.15,7.33-16.67,14.34-24,22.4-4.6,5-7.44,11.72-10.89,17.76-1.69,2.95-.51,5.34,2,7.4,9.41,7.71,19.75,8.65,30.39,3.43a133.31,133.31,0,0,0,43.86-34.09c12.65-15,25.11-30.24,38.59-44.48a65.36,65.36,0,0,1,35.87-19.59c12.91-2.42,29.17,5.27,35.35,16.8,4,7.45,2.37,12.58-4.59,17.29-4.58,3.11-8.51,7.18-12.86,10.66-7.14,5.71-14.46,11.19-21.57,16.94-16.31,13.22-32.7,26.4-44.58,44.09-7.45,11.09-14.26,22.45-16.56,36A51.46,51.46,0,0,0,582.05,588a341,341,0,0,0,28,37,1089.93,1089.93,0,0,1,81.84,107.11c9.43,14,21.56,26.16,32.16,39.4,14,17.54,28.14,35,41.56,53.06,14.13,19,27.68,38.37,41.12,57.84a193.53,193.53,0,0,1,26.41,54.14,45.93,45.93,0,0,1,1.42,19.19c-2,13.58-13.06,21.72-28.37,22.48-15.93.78-30.07-4.88-43.69-12.2-19.85-10.68-35.13-26.71-50.16-43.07-26.28-28.62-49.81-59.43-73.49-90.18-29.26-38-59.29-75.38-88.89-113.11-27.35-34.85-54.44-69.91-81.9-104.66-19.61-24.82-40.37-48.76-59.33-74.06-24.16-32.23-47.9-64.86-70.17-98.41-16-24.1-30-49.6-43.61-75.16-14.37-27-25.48-55.38-30.4-85.83A25.78,25.78,0,0,1,264,278C263.88,274.87,263.93,271.7,263.93,268.54ZM504,525.29c-14.73.53-24.92-7.89-33.65-17.95-9.81-11.3-18.76-23.36-27.86-35.26C427.14,452,410.75,432.51,397,411.37c-21.45-32.92-41.27-66.92-61.39-100.69-7.14-12-13.42-24.53-19.55-37.08-4.35-8.9-1.45-17.19,5-23.87,24.27-25.27,51.36-46.32,85.4-57.23,13.29-4.27,22.25-14.38,29.08-26.15,1.2-2.07.94-6-.28-8.22-1.76-3.11-5.52-3.67-8.88-2s-6.28,3.71-9.47,5.49q-35.58,19.8-71.17,39.57c-15,8.36-30.24,16.3-44.72,25.46-17,10.75-25,27-23.6,47.1,1.19,17.07,6.55,33.3,12.38,49.28,10.49,28.76,25.52,55.31,40.67,81.78,25.89,45.2,55.74,87.58,88.76,127.91,32.16,39.29,63,79.69,94.44,119.57,16.5,20.91,32.89,41.92,49.75,62.54C575,729.1,588,742.36,599.43,756.86c25.54,32.45,50,65.76,75.77,98,23.18,29,47.15,57.36,74.17,83a90.76,90.76,0,0,0,45.38,23.83c17.34,3.48,27.22-6.16,24.31-23.6a79.79,79.79,0,0,0-11.83-30Q797,892,786.05,876.51c-16.38-23.28-32.54-46.75-49.62-69.53-13.26-17.69-28-34.27-41.69-51.66-19.15-24.33-37.82-49-56.9-73.43q-30.95-39.55-62.27-78.78c-10.3-12.91-17.4-27.1-16.45-43.88,1.08-19,7.84-36.31,18.81-51.93,12-17.09,27.56-30.67,43.24-44.12,7.82-6.7,16.12-12.83,24.16-19.28,5.76-4.63,6.13-10.54,1.06-15.37-3.56-3.39-8.37-3.45-13.76.16-17.23,11.55-33.08,24.48-45.56,41.44-11.17,15.19-24,29-40,39.4C534,518.08,520,524.55,504,525.29Z" transform="translate(-168 -84)"/><path class="cls-1" d="M504,525.29c16-.74,29.94-7.21,43.06-15.76,16-10.41,28.82-24.21,40-39.4,12.48-17,28.33-29.89,45.56-41.44,5.39-3.61,10.2-3.55,13.76-.16,5.07,4.83,4.7,10.74-1.06,15.37-8,6.45-16.34,12.58-24.16,19.28-15.68,13.45-31.25,27-43.24,44.12-11,15.62-17.73,32.9-18.81,51.93-1,16.78,6.15,31,16.45,43.88q31.32,39.24,62.27,78.78c19.08,24.39,37.75,49.1,56.9,73.43,13.69,17.39,28.43,34,41.69,51.66,17.08,22.78,33.24,46.25,49.62,69.53Q797,892,807.23,908a79.79,79.79,0,0,1,11.83,30c2.91,17.44-7,27.08-24.31,23.6a90.76,90.76,0,0,1-45.38-23.83c-27-25.6-51-54-74.17-83-25.79-32.24-50.23-65.55-75.77-98C588,742.36,575,729.1,563.35,714.81c-16.86-20.62-33.25-41.63-49.75-62.54C482.14,612.39,451.32,572,419.16,532.7c-33-40.33-62.87-82.71-88.76-127.91-15.15-26.47-30.18-53-40.67-81.78-5.83-16-11.19-32.21-12.38-49.28-1.39-20.09,6.59-36.35,23.6-47.1,14.48-9.16,29.74-17.1,44.72-25.46q35.55-19.86,71.17-39.57c3.19-1.78,6.2-3.89,9.47-5.49s7.12-1.09,8.88,2c1.22,2.17,1.48,6.15.28,8.22-6.83,11.77-15.79,21.88-29.08,26.15-34,10.91-61.13,32-85.4,57.23-6.42,6.68-9.32,15-5,23.87,6.13,12.55,12.41,25.09,19.55,37.08,20.12,33.77,39.94,67.77,61.39,100.69,13.79,21.14,30.18,40.6,45.55,60.71,9.1,11.9,18.05,24,27.86,35.26C479.1,517.4,489.29,525.82,504,525.29Zm6.58,62.07c1.11,1.51,1.66,2.33,2.28,3.1,19.18,23.44,38.59,46.71,57.5,70.38,18.29,22.89,36.08,46.17,54.06,69.31,21.25,27.34,42.61,54.6,63.66,82.1,14.77,19.29,29,39,43.68,58.38,10.77,14.17,22,28,32.89,42.08,2.24,2.89,3.52,6.66,6.14,9,2.06,1.87,5.69,3.35,8.27,2.91,2.3-.39,4.9-3.29,6-5.7,2.22-4.88-.22-8.86-3.82-12.42-7.8-7.73-16.17-15.06-23-23.62-21.73-27.38-43-55.15-64.18-82.94-19-24.89-37.27-50.32-56.58-74.94-22.3-28.42-45.31-56.27-68.15-84.25-12.84-15.74-26-31.22-38.92-46.87C525.39,587.8,519,585.88,510.6,587.36Z" transform="translate(-168 -84)"/><path d="M510.6,587.36c8.44-1.48,14.79.44,19.86,6.57,12.94,15.65,26.08,31.13,38.92,46.87,22.84,28,45.85,55.83,68.15,84.25,19.31,24.62,37.6,50.05,56.58,74.94,21.21,27.79,42.45,55.56,64.18,82.94,6.8,8.56,15.17,15.89,23,23.62,3.6,3.56,6,7.54,3.82,12.42-1.1,2.41-3.7,5.31-6,5.7-2.58.44-6.21-1-8.27-2.91-2.62-2.39-3.9-6.16-6.14-9-10.91-14.07-22.12-27.91-32.89-42.08-14.7-19.35-28.91-39.09-43.68-58.38-21.05-27.5-42.41-54.76-63.66-82.1-18-23.14-35.77-46.42-54.06-69.31-18.91-23.67-38.32-46.94-57.5-70.38C512.26,589.69,511.71,588.87,510.6,587.36Z" transform="translate(-168 -84)"/></svg>