<svg id="Capa_1" data-name="Capa 1" xmlns="http://www.w3.org/2000/svg" viewBox="0 0 978.77 1080"><defs><style>.cls-1{fill:#fff;}</style></defs><title>secador</title><path class="cls-1" d="M1095.77,1142H117V62h978.77ZM385.48,780.46c3.11,4.15,3.3,8,2.54,12.07-.53,2.86-1.27,5.68-1.92,8.51-2.39,10.33-5.52,20.39-11.28,29.4C367.58,841.78,360,852.9,353,864.37c-15.56,25.39-31.52,50.48-54.81,69.7-10.63,8.77-21.92,16.76-33,25A20.9,20.9,0,0,1,251.05,963c-4.34-.26-8.83-1.21-13-.46-12.21,2.21-24,5.84-34.45,13-7.4,5.06-14.88,10-22.52,14.71-3.48,2.14-7.51,3.38-11.16,5.27a8.51,8.51,0,0,0-4.82,8.68c.26,3.87,3.14,5.15,6.3,6.09.35.1.71.15,1.06.26,3.7,1.14,3.94,2.15,2,5.4-1.61,2.67-3.35,5.46-4.06,8.42-1.52,6.26,3.45,10.44,9.45,8.33,3.54-1.25,7.05-2.64,10.65-3.7,4-1.18,7.61-.47,10.38,3.13,3,3.88,6,4.74,10.5,3,3.62-1.37,7.14-3,10.67-4.62,8.79-4,17.36-8.36,23.57-16,3.35-4.1,6-8.75,8.91-13.24,8.68-13.61,20.95-23.75,32.93-34.16a468.62,468.62,0,0,0,48.81-49.32,546.38,546.38,0,0,0,44.26-60.36c8.62-13.44,15.84-27.48,20.33-42.9a198.21,198.21,0,0,0,7.2-40.37c.84-10.85.21-21.49-5.16-31.49-3.37-6.29-3.27-13.38-2.5-20.31,1.63-14.68,3.62-29.32,5.22-44,1.32-12,2.52-24.09,3.34-36.16.73-10.75.86-21.53,1.27-32.3.33-8.56.44-17.15,1.1-25.69.34-4.45,2.88-7.67,7.23-9.69,2.17-1,4.68-3.26,5.23-5.41,2.22-8.58,6.7-15.83,11.95-22.7,8.78-11.49,16.12-23.37,17.37-38.47,1.45-17.61,4.16-35.11,6-52.69,1.32-12.76,1.59-25.64,3.21-38.36q3.69-29.19,8.72-58.2c1.65-9.38,4.59-18.57,7.52-27.67,1.88-5.87,6.34-9.39,12.81-9.62,10.28-.35,20.58-.92,30.86-.85,20.92.14,41.5-3.11,62.2-5.39,17.2-1.89,34.49-3.72,51.75-3.94,20.92-.26,41.87,1.17,62.8,2,5.08.19,10.17.53,15.21,1.15a26.22,26.22,0,0,0,21.22-6.5c7.13-6.12,11.43-14,14.06-22.92,4.39-14.9,5.94-30.11,6-45.61.05-13.84-2.26-26.79-9.12-39.09-6.75-12.11-16.17-18.25-30.18-18.27-16.1,0-32.19-.86-48.29-1.45a72,72,0,0,1-10.47-1.09c-13.45-2.54-27-4.78-40.26-8.06a94.37,94.37,0,0,1-21.86-8.58c-8.94-4.81-17.22-10.85-25.83-16.29C538,126.6,504.93,111.61,467.26,108.14c-17.67-1.63-35-.65-51.79,4.31-18.48,5.45-36.57,12.18-54.81,18.41-11.42,3.9-22.31,8.88-32,16.27-9.95,7.64-19.69,15.56-24.9,27.42-7.18,16.33-8.59,33.67-8.32,51.25,0,2.53.37,5.08.17,7.59-1.43,18.67,3.76,34.56,19.39,45.95,11.16,8.13,22.38,16.18,33.77,24,16.73,11.44,25.7,27.61,29.4,47.1,3.61,19,2.07,38.15.49,57.24-1.28,15.32-3.44,30.6-3.91,45.94-.55,17.67.05,35.4.7,53.07a59.34,59.34,0,0,0,6,24.93,54.54,54.54,0,0,1,4.44,13.29c.86,4.11.77,8.43,1,12.66,1,18,2.38,36,2.73,54a328.31,328.31,0,0,1-3.76,58.67c-1.95,12.16-4.6,24.25-7.57,36.21-1.82,7.29-4.06,7.84-10.78,4.77a55.89,55.89,0,0,0-22.89-5.17c-11.06-.07-21.31,3.22-30.94,8.32-9.22,4.89-18.56,9.84-24,19.43-6.24,11.08-12.75,22.05-18.29,33.48a103.64,103.64,0,0,0-10.24,38.47c-1.36,20.83,8.07,36.42,25.21,47.59a34.53,34.53,0,0,0,21.16,5.44c12.48-.71,23.12-6.18,32.54-14,18.37-15.18,32-34,41.51-55.8C382.82,786.39,384,783.76,385.48,780.46ZM902.25,221.82h0v-2.91c0-12.14-9.14-20.76-21.29-20.17-2.93.14-5.08,1.15-5,4.44s2.11,4.41,5.08,4.45c1.45,0,2.92,0,4.36.11,5.18.57,8.95,4.86,9.84,11.08.49,3.42-1.6,5.77-6.58,8a26.9,26.9,0,0,0-4.45,3.12,50.29,50.29,0,0,0,4.16,4.79c.83.76,2.19.93,3.3,1.41,3.21,1.4,6.6,2.51,9.59,4.28,9,5.31,9.86,16.5,1.77,21.45-2,1.22-4.52,1.61-6.83,2.3-3.44,1-4.21,2.61-2.24,5.54a13,13,0,0,0,3.69,3.34c1.7,1.14,3.71,1.82,5.4,3,4.67,3.2,6.09,9.35,3.91,16.12-1.51,4.67-4.3,6.31-10.48,6.47a21.85,21.85,0,0,0-6.41.93c-2.94,1-3.52,4.28-1.23,6.4a9.79,9.79,0,0,0,3.75,2.07c8.86,2.62,17.48-2.16,20.53-11.44,2.61-7.92,1.56-16.1,1.15-24.17s-1.35-15.94,1.07-23.78a8.05,8.05,0,0,0-2.33-8.65,51.64,51.64,0,0,0-6.59-5.06,9,9,0,0,1-4.24-7.6C902.21,225.46,902.25,223.64,902.25,221.82Zm-67.75-.42c0-.46-.09-.92-.14-1.38a13.09,13.09,0,0,0-3.41-.88q-10.47.2-20.92.63c-2.65.11-3.54,1.85-3.15,4.26.45,2.69,2.43,2.59,4.48,2.26,4.41-.7,8.86-1.25,13.23-2.14C827.94,223.46,831.2,222.33,834.5,221.4ZM827,309c.19-.45.37-.89.56-1.33a11.68,11.68,0,0,0-1.42-2c-5.14-4.63-11.29-7.32-17.9-9-2.16-.56-4.16.29-4.12,2.69a4.74,4.74,0,0,0,2.61,3.39c4,1.59,8.14,2.75,12.25,4C821.66,307.62,824.35,308.3,827,309Zm12.41-62c-5.85-4.92-24.86-3.3-33.53-.54A60.92,60.92,0,0,0,839.43,247.06Zm-30.34,25.17c6.28,4.61,17.93,7.22,22.21,5.15C825.94,272.44,816.37,270.14,809.09,272.23Z" transform="translate(-117 -62)"/><path d="M385.48,780.46c-1.47,3.3-2.66,5.93-3.82,8.56-9.55,21.79-23.14,40.62-41.51,55.8-9.42,7.79-20.06,13.26-32.54,14a34.53,34.53,0,0,1-21.16-5.44c-17.14-11.17-26.57-26.76-25.21-47.59a103.64,103.64,0,0,1,10.24-38.47c5.54-11.43,12-22.4,18.29-33.48,5.39-9.59,14.73-14.54,24-19.43,9.63-5.1,19.88-8.39,30.94-8.32a55.89,55.89,0,0,1,22.89,5.17c6.72,3.07,9,2.52,10.78-4.77,3-12,5.62-24.05,7.57-36.21a328.31,328.31,0,0,0,3.76-58.67c-.35-18-1.75-36-2.73-54-.23-4.23-.14-8.55-1-12.66a54.54,54.54,0,0,0-4.44-13.29,59.34,59.34,0,0,1-6-24.93c-.65-17.67-1.25-35.4-.7-53.07.47-15.34,2.63-30.62,3.91-45.94,1.58-19.09,3.12-38.2-.49-57.24-3.7-19.49-12.67-35.66-29.4-47.1-11.39-7.8-22.61-15.85-33.77-24-15.63-11.39-20.82-27.28-19.39-45.95.2-2.51-.13-5.06-.17-7.59-.27-17.58,1.14-34.92,8.32-51.25,5.21-11.86,14.95-19.78,24.9-27.42,9.64-7.39,20.53-12.37,32-16.27,18.24-6.23,36.33-13,54.81-18.41,16.82-5,34.12-5.94,51.79-4.31,37.67,3.47,70.77,18.46,102.15,38.32,8.61,5.44,16.89,11.48,25.83,16.29a94.37,94.37,0,0,0,21.86,8.58c13.27,3.28,26.81,5.52,40.26,8.06a72,72,0,0,0,10.47,1.09c16.1.59,32.19,1.42,48.29,1.45,14,0,23.43,6.16,30.18,18.27,6.86,12.3,9.17,25.25,9.12,39.09-.06,15.5-1.61,30.71-6,45.61-2.63,8.93-6.93,16.8-14.06,22.92a26.22,26.22,0,0,1-21.22,6.5c-5-.62-10.13-1-15.21-1.15-20.93-.79-41.88-2.22-62.8-2-17.26.22-34.55,2.05-51.75,3.94-20.7,2.28-41.28,5.53-62.2,5.39-10.28-.07-20.58.5-30.86.85-6.47.23-10.93,3.75-12.81,9.62-2.93,9.1-5.87,18.29-7.52,27.67q-5.08,29-8.72,58.2c-1.62,12.72-1.89,25.6-3.21,38.36-1.82,17.58-4.53,35.08-6,52.69-1.25,15.1-8.59,27-17.37,38.47-5.25,6.87-9.73,14.12-11.95,22.7-.55,2.15-3.06,4.4-5.23,5.41-4.35,2-6.89,5.24-7.23,9.69-.66,8.54-.77,17.13-1.1,25.69-.41,10.77-.54,21.55-1.27,32.3-.82,12.07-2,24.13-3.34,36.16-1.6,14.68-3.59,29.32-5.22,44-.77,6.93-.87,14,2.5,20.31,5.37,10,6,20.64,5.16,31.49a198.21,198.21,0,0,1-7.2,40.37c-4.49,15.42-11.71,29.46-20.33,42.9a546.38,546.38,0,0,1-44.26,60.36,468.62,468.62,0,0,1-48.81,49.32c-12,10.41-24.25,20.55-32.93,34.16-2.86,4.49-5.56,9.14-8.91,13.24-6.21,7.63-14.78,12-23.57,16-3.53,1.59-7.05,3.25-10.67,4.62-4.54,1.73-7.5.87-10.5-3-2.77-3.6-6.34-4.31-10.38-3.13-3.6,1.06-7.11,2.45-10.65,3.7-6,2.11-11-2.07-9.45-8.33.71-3,2.45-5.75,4.06-8.42,2-3.25,1.72-4.26-2-5.4-.35-.11-.71-.16-1.06-.26-3.16-.94-6-2.22-6.3-6.09a8.51,8.51,0,0,1,4.82-8.68c3.65-1.89,7.68-3.13,11.16-5.27,7.64-4.69,15.12-9.65,22.52-14.71,10.45-7.15,22.24-10.78,34.45-13,4.18-.75,8.67.2,13,.46a20.9,20.9,0,0,0,14.09-3.92c11.08-8.23,22.37-16.22,33-25,23.29-19.22,39.25-44.31,54.81-69.7,7-11.47,14.63-22.59,21.87-33.93,5.76-9,8.89-19.07,11.28-29.4.65-2.83,1.39-5.65,1.92-8.51C388.78,788.51,388.59,784.61,385.48,780.46Zm322-591.37c-5.27-.42-9.58-1.07-13.88-1.05-20,.09-39.91-1.09-59.62-5.13-16.61-3.39-32.85-7.55-47.3-16.87q-13.75-8.88-27.45-17.82c-26.46-17.23-54.66-30-86.57-32.51-17.41-1.37-34.9-1.71-51.9,3.57-9,2.81-18.06,5.62-27,8.68s-14.73,9.23-16.82,18.5c-3.26,14.55-6.74,29.06-9.38,43.73-3.36,18.58-6.23,37.27-8.84,56-2.2,15.81-4.83,31.71-1.42,47.68a23.08,23.08,0,0,0,4.15,8.17c1.66,2.32,4.17,4,6.07,6.2,19.12,22,27.34,47.07,21.13,76-4.5,20.95-6,42.16-6.7,63.49-.27,8-.42,16-1,24-1.1,15.35-.86,30.56,4.35,45.25,3.12,8.83,6.81,17.43,15,23,10.73,7.27,23.79,7.91,32.52-3.1,6.21-7.84,10.72-16.49,12.64-26.29.87-4.37.71-8.94,1-13.42l-1.44-.27a30.48,30.48,0,0,1-1.55,3.5c-2.16,3.6-3.95,7.58-6.76,10.61-4.05,4.36-9.81,3.89-13.74-.58a24,24,0,0,1-6.13-16.74c.47-14.75,1.62-29.48,2.53-44.22.22-3.51.6-7,.92-10.76-3,.18-5.44.45-5.62-2.72-.16-2.93,2.29-2.74,4.19-3.47a6.84,6.84,0,0,0,3.42-3.14c.76-1.57.77-3.52,1-5.31,1.2-8.58,5.65-13.36,12.64-13.49,8.89-.18,13.79,4.53,14.35,13.7.19,3.21.48,6.42.73,9.63l1,0a59.26,59.26,0,0,0,1.76-7c2.84-21.62,5.57-43.25,8.36-64.87.45-3.52.07-3.93-3.36-2.92-9.4,2.75-18.91,2.53-28.47,1.17a5.91,5.91,0,0,1-5.29-4.76,24.75,24.75,0,0,1,1.8-17.34c1.94-4.17,5.56-5.94,10.2-5.25,6.23.92,12.49,1.75,18.66,3,3.6.74,7,2.28,11.12,3.64.71-1.88,1.86-4.64,2.83-7.47,3.82-11.07,10.56-18.47,23.15-18.54,4.94,0,9.89,0,14.83.13a396.79,396.79,0,0,0,54.38-2.83c14.78-1.79,29.59-3.39,44.36-5.26,5.15-.65,10.21-2.54,15.34-2.69,8.94-.26,17.9.35,26.85.68,18.38.66,36.77,1.39,55.15,2.05a30.56,30.56,0,0,0,4.37-.58C688.74,266.49,689,228.14,707.46,189.09ZM344,722.88c-15,.34-28.18,7-38.3,19.69-11.74,14.67-17.08,32.06-21.49,50a42.56,42.56,0,0,0,2.71,29c4.57,10,17.4,18,30,7.48a106.77,106.77,0,0,0,27.51-35.29c7.19-14.68,13.69-29.72,20.15-44.74A19.63,19.63,0,0,0,366,738.79C364.42,728.69,356.5,722.91,344,722.88Zm3.79-434.54a22.94,22.94,0,0,0,.6-2.6c1-12.54,1.54-25.13,3-37.62,1.79-15.39,4.14-30.72,6.58-46,3.27-20.44,6.88-40.83,10.26-61.25.63-3.78,0-4.23-3.9-3.25A92.91,92.91,0,0,0,332.05,153c-8.26,6-14.1,13.78-15.2,23.84-1.66,15.14-2.68,30.39-3.08,45.61-.3,11.47.69,23,1.3,34.45.28,5.32.84,10.57,4.72,14.92C327.28,280.27,337.71,283.35,347.76,288.34Zm-12.16,429-.37-1c-12.43-.35-22.87,4.6-31.48,13.21-14.87,14.85-24.6,32.88-31.26,52.69-4.2,12.51-6.2,25-2.51,38.16,7.47,26.54,35.47,37.85,59,23.57,10.42-6.32,18.48-15.24,26.28-24.37,17.29-20.27,28.19-43.77,33.54-69.74,4.73-22.9,8.46-46,9.86-69.39q1.86-31,3.54-62c.57-10.63.94-21.28,1.33-31.93a23,23,0,0,0-.35-6.85c-.44-1.58-2.08-2.83-3.18-4.22-.9,1.51-2.47,3-2.58,4.52-.52,7.36-.68,14.76-.89,22.14-.28,9.81-.17,19.64-.8,29.42-.94,14.37-1.95,28.76-3.74,43a237.46,237.46,0,0,1-13,54.35c-3.76,10-8.28,19.65-12.43,29.47-8.16,19.31-15.54,39-27.07,56.68-7.09,10.88-15.57,20.13-27.7,25.46-6.44,2.83-13,3.7-19.08-.47a31.58,31.58,0,0,1-7.71-7.59c-8.61-12.06-11.8-25.11-7.66-39.88s8.13-29.71,16.19-43.08c8.48-14.06,19.65-24.86,35.72-29.81C331.4,719,333.48,718.11,335.6,717.32ZM208.75,994.4h0c0,1.94-.4,4,.08,5.79,1.3,5,2.19,10.28,4.7,14.61,3.65,6.3,9,7.44,15.62,4.38a45.44,45.44,0,0,0,8.89-5.58c12.47-9.81,15-26.13,11.39-38.41-.95-3.27-3-5.82-6.62-5.76-3.91.07-8.07.17-11.65,1.52a158.59,158.59,0,0,0-17.64,8.48,8.85,8.85,0,0,0-4.73,7.71C208.65,989.56,208.75,992,208.75,994.4Zm51.59-12.95c1-.7,1.83-1.17,2.54-1.78,8.91-7.63,18.13-14.95,26.63-23,11.33-10.74,22.5-21.71,33-33.23,18.91-20.69,35.59-43.13,50.89-66.65,19.11-29.39,29.61-61.07,28.15-96.39-.19-4.51-1.87-8.09-5-11.92a30.1,30.1,0,0,0-3.64,14.21c.1,9.41.84,18.82.68,28.22-.23,13.89-4.66,26.77-11.76,38.52-12.28,20.32-24.45,40.75-37.82,60.36-9.79,14.37-21,27.87-32.34,41.05-12,13.94-27,24.63-42.64,34.25a57.73,57.73,0,0,0-8,5.69C257.53,973.87,257.41,976.82,260.34,981.45ZM721.5,274.83c-3.42-.3-4.53-2.27-5.48-4.63-1.26-3.14-2.73-6.19-4.09-9.29-1.06-2.42-2.52-2.46-4.59-1.06-4.63,3.13-5.82,7.56-5,12.72a58.36,58.36,0,0,0,10,24.36c1.06,1.51,3.28,3.31,4.73,3.13s2.88-2.68,3.41-4.44c2.21-7.43,4.4-14.9,6-22.48a206.69,206.69,0,0,0,3.13-21.89c.45-4.66-.2-4.88-4.77-5.08a42.38,42.38,0,0,1-8.26-1c-7.36-1.83-10.47-6.64-9.1-14.08,1-5.35,2.29-10.64,3.57-15.93,1.12-4.59,2.5-9.12,3.58-13.72.2-.85-.43-1.9-.68-2.86a15.11,15.11,0,0,0-3,.87,3.31,3.31,0,0,0-1.36,1.66c-2.75,6.69-6.74,13.2-7.85,20.17-1.65,10.32-1.25,21-1.69,31.48,0,.38.33.77.53,1.2,8.77-6.62,10.39-6.31,16.47,2.89a16.27,16.27,0,0,1,1.14,1.86C720.58,263.67,722.22,268.78,721.5,274.83Zm8.2,26.61c6.21-3.23,9.3-7.84,11.36-13,4.84-12.15,6.53-25,7.76-37.93a90.89,90.89,0,0,0-6.19-43.77,23.3,23.3,0,0,0-12.35-12.71,14.44,14.44,0,0,0-2.68-.5c5.59,7.46,9.44,15.11,9.87,23.52.66,12.76.93,25.68-.31,38.37-1.2,12.34-4.56,24.47-6.83,36.72C729.82,294.9,729.93,297.77,729.7,301.44ZM423.59,480.55l.62.06c0,3.51-.21,7,.06,10.53a43.82,43.82,0,0,0,1.71,10c.49,1.56,2.44,3.56,3.85,3.66,1.65.12,3.76-1.29,5.05-2.64a8.49,8.49,0,0,0,2.12-4.88c1.08-13.74,2.05-27.48,2.78-41.24.07-1.16-1.56-3.12-2.8-3.54-5.71-1.9-10.52,1.16-11.3,7.19C424.78,466.59,424.27,473.58,423.59,480.55ZM729.87,242.88a8.44,8.44,0,0,0,.8-2.4c.29-5.64,1.18-11.38.51-16.92a120.81,120.81,0,0,0-4.66-19.73c-1.39-4.61-4.91-6.22-8.49-4.59,2.82,5.24,1.48,10.53.12,15.84s-2.8,10.79-3.95,16.23c-.89,4.19.74,6.78,4.75,8.13C722.4,240.6,725.89,241.63,729.87,242.88ZM392.09,557.12c-.37,3.53,1.51,6.13,5,7.59a65.5,65.5,0,0,0,8.51,3.07c6.45,1.7,11.48-.85,14.19-6.93,1.47-3.29.38-5.16-3.17-6.11-5.12-1.37-10.28-2.73-15.26-4.54C393.48,547.33,392.22,548.1,392.09,557.12Zm54.25-202.55c2.58-.73,5.65-1.19,8.32-2.47,3.27-1.58,4-6.55,1.24-7.79-6.24-2.81-12.83-4.61-19.75-2.66-2.89.81-3.76,3.31-3.84,6a4.66,4.66,0,0,0,4,4.93C439.47,353.31,442.69,353.86,446.34,354.57Zm4.3,93.78c-6.11,13.64-6.17,27.86-4.33,42.27A91.06,91.06,0,0,0,450.64,448.35Zm-14.25-30.29c-2.69-.09-5.47,2.95-5.6,6.12-.15,3.8,2.91,6.53,7.53,6.7,3,.11,5.06-1.58,5.24-4.34C443.79,423,439.73,418.17,436.39,418.06ZM357.67,715.65l-.63,1.06c3.31,3.47,6.53,7,10,10.33a4.2,4.2,0,0,0,3.75.82,4.5,4.5,0,0,0,2-3.47,5.48,5.48,0,0,0-2-3.62C367,717.62,362.35,716.53,357.67,715.65ZM180.76,1022.16c4.4.91,8,.53,10.73-2.62A4.13,4.13,0,0,0,192,1016c-.25-.65-2.06-1.16-3-1C185,1015.65,182.34,1018,180.76,1022.16Zm19.76-15.74c.1,6.45,1,12.58,6.55,17.75C207.51,1016.78,204,1011.62,200.52,1006.42ZM307,255.89q2.73-7.09-1.68-11C303.24,248.25,303.82,252.06,307,255.89ZM179.29,1001a12.79,12.79,0,0,0,10.9-3.78A11.49,11.49,0,0,0,179.29,1001ZM305.06,224.42c1-1.95,1.93-3,1.95-4s-1-1.87-1.57-2.81c-.84,1-2,2-2.38,3.15C302.85,221.44,304,222.54,305.06,224.42ZM434.13,443.88c.91-1.07,2-2,1.9-2.3a4.81,4.81,0,0,0-2.26-2.22c-.45-.16-1.39,1.09-2.11,1.7Z" transform="translate(-117 -62)"/><path d="M902.25,221.82c0,1.82,0,3.64,0,5.45a9,9,0,0,0,4.24,7.6,51.64,51.64,0,0,1,6.59,5.06,8.05,8.05,0,0,1,2.33,8.65c-2.42,7.84-1.46,15.8-1.07,23.78s1.46,16.25-1.15,24.17c-3.05,9.28-11.67,14.06-20.53,11.44a9.79,9.79,0,0,1-3.75-2.07c-2.29-2.12-1.71-5.39,1.23-6.4a21.85,21.85,0,0,1,6.41-.93c6.18-.16,9-1.8,10.48-6.47,2.18-6.77.76-12.92-3.91-16.12-1.69-1.15-3.7-1.83-5.4-3a13,13,0,0,1-3.69-3.34c-2-2.93-1.2-4.52,2.24-5.54,2.31-.69,4.83-1.08,6.83-2.3,8.09-4.95,7.19-16.14-1.77-21.45-3-1.77-6.38-2.88-9.59-4.28-1.11-.48-2.47-.65-3.3-1.41a50.29,50.29,0,0,1-4.16-4.79,26.9,26.9,0,0,1,4.45-3.12c5-2.19,7.07-4.54,6.58-8-.89-6.22-4.66-10.51-9.84-11.08-1.44-.16-2.91-.09-4.36-.11-3,0-5-1.3-5.08-4.45s2.05-4.3,5-4.44c12.15-.59,21.27,8,21.29,20.17v2.91Z" transform="translate(-117 -62)"/><path d="M834.5,221.4c-3.3.93-6.56,2.06-9.91,2.75-4.37.89-8.82,1.44-13.23,2.14-2.05.33-4,.43-4.48-2.26-.39-2.41.5-4.15,3.15-4.26q10.46-.42,20.92-.63a13.09,13.09,0,0,1,3.41.88C834.41,220.48,834.45,220.94,834.5,221.4Z" transform="translate(-117 -62)"/><path d="M827,309c-2.67-.74-5.36-1.42-8-2.23-4.11-1.26-8.27-2.42-12.25-4a4.74,4.74,0,0,1-2.61-3.39c0-2.4,2-3.25,4.12-2.69,6.61,1.71,12.76,4.4,17.9,9a11.68,11.68,0,0,1,1.42,2C827.39,308.15,827.21,308.59,827,309Z" transform="translate(-117 -62)"/><path d="M839.43,247.06a60.92,60.92,0,0,1-33.53-.54C814.57,243.76,833.58,242.14,839.43,247.06Z" transform="translate(-117 -62)"/><path d="M809.09,272.23c7.28-2.09,16.85.21,22.21,5.15C827,279.45,815.37,276.84,809.09,272.23Z" transform="translate(-117 -62)"/><path class="cls-1" d="M707.46,189.09c-18.49,39-18.72,77.4.68,116a30.56,30.56,0,0,1-4.37.58c-18.38-.66-36.77-1.39-55.15-2.05-9-.33-17.91-.94-26.85-.68-5.13.15-10.19,2-15.34,2.69-14.77,1.87-29.58,3.47-44.36,5.26a396.79,396.79,0,0,1-54.38,2.83c-4.94-.09-9.89-.15-14.83-.13-12.59.07-19.33,7.47-23.15,18.54-1,2.83-2.12,5.59-2.83,7.47-4.08-1.36-7.52-2.9-11.12-3.64-6.17-1.28-12.43-2.11-18.66-3-4.64-.69-8.26,1.08-10.2,5.25a24.75,24.75,0,0,0-1.8,17.34,5.91,5.91,0,0,0,5.29,4.76c9.56,1.36,19.07,1.58,28.47-1.17,3.43-1,3.81-.6,3.36,2.92-2.79,21.62-5.52,43.25-8.36,64.87a59.26,59.26,0,0,1-1.76,7l-1,0c-.25-3.21-.54-6.42-.73-9.63-.56-9.17-5.46-13.88-14.35-13.7-7,.13-11.44,4.91-12.64,13.49-.25,1.79-.26,3.74-1,5.31a6.84,6.84,0,0,1-3.42,3.14c-1.9.73-4.35.54-4.19,3.47.18,3.17,2.64,2.9,5.62,2.72-.32,3.74-.7,7.25-.92,10.76-.91,14.74-2.06,29.47-2.53,44.22A24,24,0,0,0,423,510.38c3.93,4.47,9.69,4.94,13.74.58,2.81-3,4.6-7,6.76-10.61a30.48,30.48,0,0,0,1.55-3.5l1.44.27c-.3,4.48-.14,9.05-1,13.42-1.92,9.8-6.43,18.45-12.64,26.29-8.73,11-21.79,10.37-32.52,3.1-8.24-5.59-11.93-14.19-15-23-5.21-14.69-5.45-29.9-4.35-45.25.57-8,.72-16,1-24,.7-21.33,2.2-42.54,6.7-63.49,6.21-28.93-2-54-21.13-76-1.9-2.18-4.41-3.88-6.07-6.2a23.08,23.08,0,0,1-4.15-8.17c-3.41-16-.78-31.87,1.42-47.68,2.61-18.71,5.48-37.4,8.84-56,2.64-14.67,6.12-29.18,9.38-43.73,2.09-9.27,7.91-15.44,16.82-18.5s18-5.87,27-8.68c17-5.28,34.49-4.94,51.9-3.57,31.91,2.51,60.11,15.28,86.57,32.51q13.71,8.92,27.45,17.82c14.45,9.32,30.69,13.48,47.3,16.87,19.71,4,39.58,5.22,59.62,5.13C697.88,188,702.19,188.67,707.46,189.09ZM462.1,300.27c5-.07,10.62,2.42,14.35-2.33,2.67-3.4,2.86-7.83,2.37-12.71C471.06,288.38,467.22,294.91,462.1,300.27Zm-3.8-15.21c-6.4.92-17.68,8.7-20,13.63C448.93,297.1,457.7,292.72,458.3,285.06Zm105.48,12.12c8.69,1.94,15.19-5,15.3-11,0-.86-.48-2.41-.87-2.45-1.07-.11-2.61,0-3.26.72C571.14,288.57,567.54,292.85,563.78,297.18Zm23.29-2.88c5.28-2.09,9.95-3.89,11.34-9.68,1-4.1.5-8.32-1.66-10.24C593.6,280.85,590.52,287.21,587.07,294.3ZM604.7,291l1.52,1c2.53-3.24,5.36-6.3,7.47-9.78,1.18-1.95,1.38-4.59,1.57-7,.06-.74-1.22-1.87-2.14-2.31-.45-.22-1.91.54-2.15,1.15C608.78,279.71,606.77,285.36,604.7,291Zm-103.41-1.28c-5-.36-12.34,4.78-14.3,10C495.12,301.12,500.15,297.61,501.29,289.71Zm-87.3-4.1c-6.89-.55-10.43,4.74-15.85,7.1C405.89,297.42,410.5,295.3,414,285.61Zm19.76,2.46c-8.13.26-13.09,4.94-12.83,11.82C425.81,299.71,432.3,293.83,433.75,288.07Zm83.82,1.06c-3.26,4.2-6.24,7.92-9.05,11.77a2.63,2.63,0,0,0,.13,2.52,2.76,2.76,0,0,0,2.47.76C516.28,302,520.54,296.09,517.57,289.13Zm9.39,15c8.18-1,11.46-6.31,9.89-15.59C531.61,292.66,529.72,298.33,527,304.17Zm137.26-6.62c4.41-5.14,3.91-13.88-.77-17.84C660.86,285.71,661.46,291.37,664.22,297.55ZM554.54,284.22c-4.49,4.24-7.66,8.51-8.85,14.37C553.5,297,556.09,292.18,554.54,284.22Zm121.13-3.59a8.34,8.34,0,0,0,1.5,12.25C680.49,288.55,680,284.05,675.67,280.63Zm-23.78-.29a12,12,0,0,0-1.24,13.76A10.15,10.15,0,0,0,651.89,280.34Zm36.55,1c-2.69,3.58-1.05,9.36,3.95,14.24C693,290.18,692.82,285.39,688.44,281.35ZM415.11,454.15c-2.21-1.33-3.41-2.61-4.56-2.56-.86,0-2.29,1.78-2.28,2.76s1.56,2.64,2.4,2.61C411.83,456.93,413,455.6,415.11,454.15Zm-1.67,24.3c-1.81-1.06-3-2.31-3.7-2.06a4.38,4.38,0,0,0-2.46,2.8c-.12.62,1.69,2.27,2.53,2.21C410.83,481.32,411.74,479.92,413.44,478.45ZM641.24,286,638,283.41c-.69.94-2,1.89-1.92,2.8s1.33,1.8,2.08,2.7ZM411.53,499a13.42,13.42,0,0,0-2.92-2c-.32-.1-1.53,1.28-1.45,1.41a5.55,5.55,0,0,0,2,2.05C409.53,500.66,410.38,499.76,411.53,499Z" transform="translate(-117 -62)"/><path class="cls-1" d="M344,722.88c12.53,0,20.45,5.81,22,15.91A19.63,19.63,0,0,1,364.57,749c-6.46,15-13,30.06-20.15,44.74A106.77,106.77,0,0,1,316.91,829c-12.62,10.56-25.45,2.5-30-7.48a42.56,42.56,0,0,1-2.71-29c4.41-17.94,9.75-35.33,21.49-50C315.79,729.93,329,723.22,344,722.88Z" transform="translate(-117 -62)"/><path class="cls-1" d="M347.76,288.34c-10.05-5-20.48-8.07-28-16.48-3.88-4.35-4.44-9.6-4.72-14.92-.61-11.48-1.6-23-1.3-34.45.4-15.22,1.42-30.47,3.08-45.61,1.1-10.06,6.94-17.83,15.2-23.84A92.91,92.91,0,0,1,364.3,137.6c3.9-1,4.53-.53,3.9,3.25-3.38,20.42-7,40.81-10.26,61.25-2.44,15.3-4.79,30.63-6.58,46-1.46,12.49-2,25.08-3,37.62A22.94,22.94,0,0,1,347.76,288.34Z" transform="translate(-117 -62)"/><path class="cls-1" d="M335.6,717.32c-2.12.79-4.2,1.68-6.35,2.35-16.07,5-27.24,15.75-35.72,29.81-8.06,13.37-12,28.22-16.19,43.08s-.95,27.82,7.66,39.88a31.58,31.58,0,0,0,7.71,7.59c6.1,4.17,12.64,3.3,19.08.47,12.13-5.33,20.61-14.58,27.7-25.46,11.53-17.71,18.91-37.37,27.07-56.68,4.15-9.82,8.67-19.5,12.43-29.47a237.46,237.46,0,0,0,13-54.35c1.79-14.27,2.8-28.66,3.74-43,.63-9.78.52-19.61.8-29.42.21-7.38.37-14.78.89-22.14.11-1.56,1.68-3,2.58-4.52,1.1,1.39,2.74,2.64,3.18,4.22a23,23,0,0,1,.35,6.85c-.39,10.65-.76,21.3-1.33,31.93q-1.67,31-3.54,62c-1.4,23.4-5.13,46.49-9.86,69.39-5.35,26-16.25,49.47-33.54,69.74-7.8,9.13-15.86,18.05-26.28,24.37-23.55,14.28-51.55,3-59-23.57-3.69-13.13-1.69-25.65,2.51-38.16,6.66-19.81,16.39-37.84,31.26-52.69,8.61-8.61,19.05-13.56,31.48-13.21Z" transform="translate(-117 -62)"/><path class="cls-1" d="M208.75,994.4c0-2.42-.1-4.84,0-7.26a8.85,8.85,0,0,1,4.73-7.71A158.59,158.59,0,0,1,231.14,971c3.58-1.35,7.74-1.45,11.65-1.52,3.59-.06,5.67,2.49,6.62,5.76,3.59,12.28,1.08,28.6-11.39,38.41a45.44,45.44,0,0,1-8.89,5.58c-6.6,3.06-12,1.92-15.62-4.38-2.51-4.33-3.4-9.65-4.7-14.61-.48-1.81-.08-3.85-.08-5.79Z" transform="translate(-117 -62)"/><path class="cls-1" d="M260.34,981.45c-2.93-4.63-2.81-7.58.7-10.69a57.73,57.73,0,0,1,8-5.69c15.66-9.62,30.6-20.31,42.64-34.25C323,917.64,334.21,904.14,344,889.77c13.37-19.61,25.54-40,37.82-60.36,7.1-11.75,11.53-24.63,11.76-38.52.16-9.4-.58-18.81-.68-28.22a30.1,30.1,0,0,1,3.64-14.21c3.17,3.83,4.85,7.41,5,11.92,1.46,35.32-9,67-28.15,96.39-15.3,23.52-32,46-50.89,66.65-10.53,11.52-21.7,22.49-33,33.23-8.5,8.07-17.72,15.39-26.63,23C262.17,980.28,261.34,980.75,260.34,981.45Z" transform="translate(-117 -62)"/><path class="cls-1" d="M721.5,274.83c.72-6.05-.92-11.16-3.31-16.11a16.27,16.27,0,0,0-1.14-1.86c-6.08-9.2-7.7-9.51-16.47-2.89-.2-.43-.55-.82-.53-1.2.44-10.51,0-21.16,1.69-31.48,1.11-7,5.1-13.48,7.85-20.17a3.31,3.31,0,0,1,1.36-1.66,15.11,15.11,0,0,1,3-.87c.25,1,.88,2,.68,2.86-1.08,4.6-2.46,9.13-3.58,13.72-1.28,5.29-2.57,10.58-3.57,15.93-1.37,7.44,1.74,12.25,9.1,14.08a42.38,42.38,0,0,0,8.26,1c4.57.2,5.22.42,4.77,5.08a206.69,206.69,0,0,1-3.13,21.89c-1.56,7.58-3.75,15.05-6,22.48-.53,1.76-2.08,4.27-3.41,4.44s-3.67-1.62-4.73-3.13a58.36,58.36,0,0,1-10-24.36c-.86-5.16.33-9.59,5-12.72,2.07-1.4,3.53-1.36,4.59,1.06,1.36,3.1,2.83,6.15,4.09,9.29C717,272.56,718.08,274.53,721.5,274.83Z" transform="translate(-117 -62)"/><path class="cls-1" d="M729.7,301.44c.23-3.67.12-6.54.63-9.28,2.27-12.25,5.63-24.38,6.83-36.72,1.24-12.69,1-25.61.31-38.37-.43-8.41-4.28-16.06-9.87-23.52a14.44,14.44,0,0,1,2.68.5,23.3,23.3,0,0,1,12.35,12.71,90.89,90.89,0,0,1,6.19,43.77c-1.23,12.94-2.92,25.78-7.76,37.93C739,293.6,735.91,298.21,729.7,301.44Z" transform="translate(-117 -62)"/><path class="cls-1" d="M423.59,480.55c.68-7,1.19-14,2.09-20.9.78-6,5.59-9.09,11.3-7.19,1.24.42,2.87,2.38,2.8,3.54-.73,13.76-1.7,27.5-2.78,41.24a8.49,8.49,0,0,1-2.12,4.88c-1.29,1.35-3.4,2.76-5.05,2.64-1.41-.1-3.36-2.1-3.85-3.66a43.82,43.82,0,0,1-1.71-10c-.27-3.49-.06-7-.06-10.53Z" transform="translate(-117 -62)"/><path class="cls-1" d="M729.87,242.88c-4-1.25-7.47-2.28-10.92-3.44-4-1.35-5.64-3.94-4.75-8.13,1.15-5.44,2.57-10.83,3.95-16.23s2.7-10.6-.12-15.84c3.58-1.63,7.1,0,8.49,4.59a120.81,120.81,0,0,1,4.66,19.73c.67,5.54-.22,11.28-.51,16.92A8.44,8.44,0,0,1,729.87,242.88Z" transform="translate(-117 -62)"/><path class="cls-1" d="M392.09,557.12c.13-9,1.39-9.79,9.25-6.92,5,1.81,10.14,3.17,15.26,4.54,3.55,1,4.64,2.82,3.17,6.11-2.71,6.08-7.74,8.63-14.19,6.93a65.5,65.5,0,0,1-8.51-3.07C393.6,563.25,391.72,560.65,392.09,557.12Z" transform="translate(-117 -62)"/><path class="cls-1" d="M446.34,354.57c-3.65-.71-6.87-1.26-10-2a4.66,4.66,0,0,1-4-4.93c.08-2.68.95-5.18,3.84-6,6.92-1.95,13.51-.15,19.75,2.66,2.76,1.24,2,6.21-1.24,7.79C452,353.38,448.92,353.84,446.34,354.57Z" transform="translate(-117 -62)"/><path class="cls-1" d="M450.64,448.35a91.06,91.06,0,0,1-4.33,42.27C444.47,476.21,444.53,462,450.64,448.35Z" transform="translate(-117 -62)"/><path class="cls-1" d="M436.39,418.06c3.34.11,7.4,4.91,7.17,8.48-.18,2.76-2.21,4.45-5.24,4.34-4.62-.17-7.68-2.9-7.53-6.7C430.92,421,433.7,418,436.39,418.06Z" transform="translate(-117 -62)"/><path class="cls-1" d="M357.67,715.65c4.68.88,9.34,2,13.15,5.12a5.48,5.48,0,0,1,2,3.62,4.5,4.5,0,0,1-2,3.47A4.2,4.2,0,0,1,367,727c-3.47-3.29-6.69-6.86-10-10.33Z" transform="translate(-117 -62)"/><path class="cls-1" d="M180.76,1022.16c1.58-4.21,4.28-6.51,8.23-7.17,1-.16,2.79.35,3,1a4.13,4.13,0,0,1-.54,3.55C188.78,1022.69,185.16,1023.07,180.76,1022.16Z" transform="translate(-117 -62)"/><path class="cls-1" d="M200.52,1006.42c3.44,5.2,7,10.36,6.55,17.75C201.55,1019,200.62,1012.87,200.52,1006.42Z" transform="translate(-117 -62)"/><path class="cls-1" d="M307,255.89c-3.17-3.83-3.75-7.64-1.68-11Q309.72,248.79,307,255.89Z" transform="translate(-117 -62)"/><path class="cls-1" d="M179.29,1001a11.49,11.49,0,0,1,10.9-3.78A12.79,12.79,0,0,1,179.29,1001Z" transform="translate(-117 -62)"/><path class="cls-1" d="M305.06,224.42c-1.07-1.88-2.21-3-2-3.7.34-1.18,1.54-2.11,2.38-3.15.57.94,1.58,1.88,1.57,2.81S306.06,222.47,305.06,224.42Z" transform="translate(-117 -62)"/><path class="cls-1" d="M434.13,443.88l-2.47-2.82c.72-.61,1.66-1.86,2.11-1.7a4.81,4.81,0,0,1,2.26,2.22C436.17,441.85,435,442.81,434.13,443.88Z" transform="translate(-117 -62)"/><path d="M462.1,300.27c5.12-5.36,9-11.89,16.72-15,.49,4.88.3,9.31-2.37,12.71C472.72,302.69,467.13,300.2,462.1,300.27Z" transform="translate(-117 -62)"/><path d="M458.3,285.06c-.6,7.66-9.37,12-20,13.63C440.62,293.76,451.9,286,458.3,285.06Z" transform="translate(-117 -62)"/><path d="M563.78,297.18c3.76-4.33,7.36-8.61,11.17-12.7.65-.7,2.19-.83,3.26-.72.39,0,.88,1.59.87,2.45C579,292.16,572.47,299.12,563.78,297.18Z" transform="translate(-117 -62)"/><path d="M587.07,294.3c3.45-7.09,6.53-13.45,9.68-19.92,2.16,1.92,2.64,6.14,1.66,10.24C597,290.41,592.35,292.21,587.07,294.3Z" transform="translate(-117 -62)"/><path d="M604.7,291c2.07-5.63,4.08-11.28,6.27-16.87.24-.61,1.7-1.37,2.15-1.15.92.44,2.2,1.57,2.14,2.31-.19,2.37-.39,5-1.57,7-2.11,3.48-4.94,6.54-7.47,9.78Z" transform="translate(-117 -62)"/><path d="M501.29,289.71c-1.14,7.9-6.17,11.41-14.3,10C489,294.49,496.32,289.35,501.29,289.71Z" transform="translate(-117 -62)"/><path d="M414,285.61c-3.49,9.69-8.1,11.81-15.85,7.1C403.56,290.35,407.1,285.06,414,285.61Z" transform="translate(-117 -62)"/><path d="M433.75,288.07c-1.45,5.76-7.94,11.64-12.83,11.82C420.66,293,425.62,288.33,433.75,288.07Z" transform="translate(-117 -62)"/><path d="M517.57,289.13c3,7-1.29,12.9-6.45,15.05a2.76,2.76,0,0,1-2.47-.76,2.63,2.63,0,0,1-.13-2.52C511.33,297.05,514.31,293.33,517.57,289.13Z" transform="translate(-117 -62)"/><path d="M527,304.17c2.76-5.84,4.65-11.51,9.89-15.59C538.42,297.86,535.14,303.17,527,304.17Z" transform="translate(-117 -62)"/><path d="M664.22,297.55c-2.76-6.18-3.36-11.84-.77-17.84C668.13,283.67,668.63,292.41,664.22,297.55Z" transform="translate(-117 -62)"/><path d="M554.54,284.22c1.55,8-1,12.77-8.85,14.37C546.88,292.73,550.05,288.46,554.54,284.22Z" transform="translate(-117 -62)"/><path d="M675.67,280.63c4.34,3.42,4.82,7.92,1.5,12.25A8.34,8.34,0,0,1,675.67,280.63Z" transform="translate(-117 -62)"/><path d="M651.89,280.34a10.15,10.15,0,0,1-1.24,13.76A12,12,0,0,1,651.89,280.34Z" transform="translate(-117 -62)"/><path d="M688.44,281.35c4.38,4,4.54,8.83,3.95,14.24C687.39,290.71,685.75,284.93,688.44,281.35Z" transform="translate(-117 -62)"/><path d="M415.11,454.15c-2.15,1.45-3.28,2.78-4.44,2.81-.84,0-2.39-1.67-2.4-2.61s1.42-2.72,2.28-2.76C411.7,451.54,412.9,452.82,415.11,454.15Z" transform="translate(-117 -62)"/><path d="M413.44,478.45c-1.7,1.47-2.61,2.87-3.63,2.95-.84.06-2.65-1.59-2.53-2.21a4.38,4.38,0,0,1,2.46-2.8C410.41,476.14,411.63,477.39,413.44,478.45Z" transform="translate(-117 -62)"/><path d="M641.24,286l-3.13,2.89c-.75-.9-2.05-1.78-2.08-2.7s1.23-1.86,1.92-2.8Z" transform="translate(-117 -62)"/><path d="M411.53,499c-1.15.78-2,1.68-2.34,1.51a5.55,5.55,0,0,1-2-2.05c-.08-.13,1.13-1.51,1.45-1.41A13.42,13.42,0,0,1,411.53,499Z" transform="translate(-117 -62)"/></svg>