<svg id="Capa_1" data-name="Capa 1" xmlns="http://www.w3.org/2000/svg" viewBox="0 0 856 845"><defs><style>.cls-1{fill:#fff;}</style></defs><title>tijera</title><path class="cls-1" d="M112,134H968V979H112ZM430.77,568.07l.62,1.34c-.75,1.45-1.43,2.94-2.26,4.34q-32.52,54.78-65.05,109.56c-10.75,18.14-19.76,37.07-24.91,57.61-2.86,11.41-3.25,23.05,3.19,33.37,6,9.59,5.62,18.77,1.21,28.49A139.82,139.82,0,0,0,331,870.87c.67,10,4.66,18.28,12.47,24.64,5.11,4.17,10.62,6.34,17,3,5.79-3.05,8.62-9.4,7.94-17-.57-6.3-1.11-12.6-1.33-18.91-.88-24.67,12.68-39.07,32.22-47.11,17.85-7.35,35.39-15.51,52.8-23.86,15.15-7.26,25.43-18.79,27.44-36.14.65-5.59.41-11.31.39-17-.07-21.05-8.39-36.73-29.11-44.14-8.47-3-17.05-5.73-25.49-8.82-6.57-2.41-7.82-5.17-4.72-11.52,4.81-9.88,10.06-19.54,15.14-29.29,12.25-23.48,24.65-46.89,36.69-70.48,4.34-8.5,10-13.57,19.64-17a566.92,566.92,0,0,0,64.19-27.55q61.11-30.86,121.12-63.83c39.72-21.86,77.72-46.57,114.93-72.49,24.05-16.76,48.44-33,72.64-49.56,5.9-4,12-7.89,17.4-12.49,4.6-3.9,4.45-8,.81-12.79-4.06-5.4-10.78-8.05-17.38-5.07s-12.95,7.29-18.93,11.66c-19.46,14.23-40.8,25.06-62.27,35.82-26.8,13.44-53.22,27.64-79.7,41.7-45,23.9-89.89,48-134.89,71.88-6,3.2-12.37,5.76-18.63,8.48-.93.4-2.86.42-3.13-.05a5,5,0,0,1-.22-3.58,12.07,12.07,0,0,1,2.18-3.91c10.84-13.47,21.5-27.09,32.67-40.28,6.45-7.61,14.27-14.07,20.53-21.81q29.05-35.94,57.33-72.5c17.64-22.77,35.37-45.51,52.14-68.92,17.09-23.86,33.8-47.89,55.09-68.34,8.12-7.8,11.18-18,11-29.07-.06-4.79-2.38-6.92-6.65-4.82a47.31,47.31,0,0,0-12.92,9.68c-17.39,18.15-34.24,36.82-51.74,54.86-15.06,15.53-30.85,30.35-46.13,45.67q-45,45.12-89.82,90.48c-15.08,15.27-30,30.74-44.9,46.17-20.61,21.31-41.27,42.58-61.7,64.06-9.56,10.05-18.21,20.86-23,34.16-2.12,5.88-6.08,9.7-11.79,12.11-26.71,11.29-53.54,22.26-81.77,29.28-10.1,2.51-20.34,4.48-31.6,6.93.68-2.85,1-4.42,1.43-5.94,4.88-15.82,6.47-31.85,3.72-48.3C317.78,483,299.36,464,270.85,464.78c-21.93.6-41.36,8.07-59.22,20.1-11.29,7.6-19.85,17.73-24.75,30.61a76.69,76.69,0,0,0-4.7,36.36c2.37,20.68,11.32,37.48,30.1,47.95,17.74,9.89,37.1,12.69,56.64,9.45,18.82-3.13,37.29-8.55,55.76-13.49,27.68-7.4,55.19-15.38,82.84-22.86C415.15,570.84,423,569.66,430.77,568.07Z" transform="translate(-112 -134)"/><path d="M430.77,568.07c-7.76,1.59-15.62,2.77-23.25,4.83-27.65,7.48-55.16,15.46-82.84,22.86-18.47,4.94-36.94,10.36-55.76,13.49-19.54,3.24-38.9.44-56.64-9.45-18.78-10.47-27.73-27.27-30.1-47.95a76.69,76.69,0,0,1,4.7-36.36c4.9-12.88,13.46-23,24.75-30.61,17.86-12,37.29-19.5,59.22-20.1,28.51-.77,46.93,18.19,51.25,44.07,2.75,16.45,1.16,32.48-3.72,48.3-.47,1.52-.75,3.09-1.43,5.94,11.26-2.45,21.5-4.42,31.6-6.93,28.23-7,55.06-18,81.77-29.28,5.71-2.41,9.67-6.23,11.79-12.11,4.81-13.3,13.46-24.11,23-34.16,20.43-21.48,41.09-42.75,61.7-64.06,14.92-15.43,29.82-30.9,44.9-46.17Q616.54,325,661.55,279.9c15.28-15.32,31.07-30.14,46.13-45.67,17.5-18,34.35-36.71,51.74-54.86a47.31,47.31,0,0,1,12.92-9.68c4.27-2.1,6.59,0,6.65,4.82.13,11.12-2.93,21.27-11,29.07-21.29,20.45-38,44.48-55.09,68.34-16.77,23.41-34.5,46.15-52.14,68.92q-28.31,36.53-57.33,72.5c-6.26,7.74-14.08,14.2-20.53,21.81C571.68,448.34,561,462,550.18,475.43a12.07,12.07,0,0,0-2.18,3.91,5,5,0,0,0,.22,3.58c.27.47,2.2.45,3.13.05,6.26-2.72,12.62-5.28,18.63-8.48,45-23.89,89.9-48,134.89-71.88,26.48-14.06,52.9-28.26,79.7-41.7,21.47-10.76,42.81-21.59,62.27-35.82,6-4.37,12.23-8.63,18.93-11.66s13.32-.33,17.38,5.07c3.64,4.84,3.79,8.89-.81,12.79-5.43,4.6-11.5,8.46-17.4,12.49-24.2,16.54-48.59,32.8-72.64,49.56-37.21,25.92-75.21,50.63-114.93,72.49q-60,33-121.12,63.83a566.92,566.92,0,0,1-64.19,27.55c-9.61,3.45-15.3,8.52-19.64,17-12,23.59-24.44,47-36.69,70.48-5.08,9.75-10.33,19.41-15.14,29.29-3.1,6.35-1.85,9.11,4.72,11.52,8.44,3.09,17,5.79,25.49,8.82,20.72,7.41,29,23.09,29.11,44.14,0,5.66.26,11.38-.39,17-2,17.35-12.29,28.88-27.44,36.14-17.41,8.35-34.95,16.51-52.8,23.86-19.54,8-33.1,22.44-32.22,47.11.22,6.31.76,12.61,1.33,18.91.68,7.61-2.15,14-7.94,17-6.41,3.37-11.92,1.2-17-3-7.81-6.36-11.8-14.69-12.47-24.64a139.82,139.82,0,0,1,12.62-68.09c4.41-9.72,4.78-18.9-1.21-28.49-6.44-10.32-6.05-22-3.19-33.37,5.15-20.54,14.16-39.47,24.91-57.61q32.49-54.79,65.05-109.56c.83-1.4,1.51-2.89,2.26-4.34ZM452,525.77l1,.7c.24,1.31.39,2.63.72,3.91,4.55,17.69,21.5,24.38,37.14,14.82,9.36-5.73,16.2-13.87,21.92-22.93,8.45-13.38,15.73-27.54,24.83-40.44,17.18-24.35,34.81-48.42,53.16-71.9,22.45-28.73,45.83-56.74,68.82-85.05,11.75-14.48,23.24-29.19,35.38-43.35,17.69-20.64,34.77-41.69,48.61-65.17,1.14-2,1.48-4.38,2.19-6.58-2.13,1.14-4.78,1.82-6.31,3.51-15.44,17-30.41,34.39-46.07,51.17-13.62,14.59-27.93,28.53-42,42.74-26.22,26.56-52.67,52.9-78.64,79.71q-28.32,29.23-55.58,59.48c-19.39,21.51-38.29,43.47-57.11,65.48C456.69,515.88,454.67,521.11,452,525.77Zm3.34,24.84a43.15,43.15,0,0,0-1.49-4.43c-6.8-14.22-10.24-13.68-21.92-8.61-39,16.95-78.41,32.58-120.92,38.58-8.6,1.21-14.14-2.58-13.8-11.4a44.58,44.58,0,0,1,4-16.26c5.59-12.34,8.69-24.93,5.75-38.33-5.54-25.24-18.52-35.3-40.44-34.74-25.64.65-47.53,11.07-63.66,31.55-18.81,23.89-13.29,53.26,6.74,71.46,19.67,17.87,43.46,21.05,68.23,16.77,23.25-4,46.24-9.72,69.16-15.42,26.64-6.62,53.09-14,79.6-21.13C436,556.11,445.41,553.39,455.34,550.61Zm12,13.24c-6.42.84-11.5,1.16-16.4,2.29-2.42.56-5.37,2.1-6.57,4.11-6.83,11.44-13,23.26-19.77,34.74-12.33,21-24.52,42-37.51,62.52s-24.9,41.8-32,65.32c-2.86,9.55-3.79,19.45-1.39,29.1,5.57,22.33,24.64,33.77,47.33,31.88,18.41-1.54,35.05-8.44,50.69-18.37,21-13.34,20.67-47.38,8.61-58.87-13.33-12.7-29.79-17.71-48.25-14.94-3.61.55-7.14,2.09-10.73,2.15a9.9,9.9,0,0,1-6.59-3c-.92-1-.56-4.11.3-5.67q30.19-55,60.65-109.8C459.38,578.65,462.92,571.94,467.29,563.85ZM515.11,534l.89,1.21c3.55-1.73,7.11-3.41,10.62-5.21,5-2.57,10-5.37,15.07-7.82,24.9-12,50.09-23.38,74.72-35.9,52.34-26.6,101.18-59.13,150.6-90.63,26.12-16.64,51.83-33.92,77.66-51,1.07-.71,1.48-2.43,2.2-3.67-1.47,0-3.24-.51-4.37.12-23.43,13-46.68,26.34-70.19,39.21-33.74,18.47-67.37,37.19-101.58,54.75-38.52,19.77-77.33,39-116.62,57.2C534.83,501.12,525.53,517.68,515.11,534ZM348.77,878.29c1.38-7.34,2.66-14.7,4.17-22,3-14.5,7.44-28.31,18.22-39.25,2.25-2.29,5.27-5.58,2.58-8.71-2.28-2.66-6.05-5.08-9.43-5.52-4.53-.59-7.68,3.15-9,7.31-3.82,11.82-7.87,23.63-10.71,35.71C342,856.83,344.29,867.79,348.77,878.29Z" transform="translate(-112 -134)"/><path class="cls-1" d="M452,525.77c2.67-4.66,4.69-9.89,8.12-13.9,18.82-22,37.72-44,57.11-65.48q27.25-30.24,55.58-59.48c26-26.81,52.42-53.15,78.64-79.71,14-14.21,28.34-28.15,42-42.74,15.66-16.78,30.63-34.19,46.07-51.17,1.53-1.69,4.18-2.37,6.31-3.51-.71,2.2-1,4.63-2.19,6.58-13.84,23.48-30.92,44.53-48.61,65.17-12.14,14.16-23.63,28.87-35.38,43.35-23,28.31-46.37,56.32-68.82,85.05-18.35,23.48-36,47.55-53.16,71.9-9.1,12.9-16.38,27.06-24.83,40.44-5.72,9.06-12.56,17.2-21.92,22.93-15.64,9.56-32.59,2.87-37.14-14.82-.33-1.28-.48-2.6-.72-3.91Zm53.17-9.92c-.1-10-8.87-16.11-18.5-13.2-8.17,2.47-15.46,12.12-15.61,20.65-.1,6,2.73,9.62,8.69,11,6.77,1.56,12.4-1.22,17.55-5.07C501.8,525.84,505.49,521.81,505.17,515.85Z" transform="translate(-112 -134)"/><path class="cls-1" d="M455.34,550.61c-9.93,2.78-19.33,5.5-28.79,8-26.51,7.12-53,14.51-79.6,21.13-22.92,5.7-45.91,11.4-69.16,15.42-24.77,4.28-48.56,1.1-68.23-16.77-20-18.2-25.55-47.57-6.74-71.46,16.13-20.48,38-30.9,63.66-31.55,21.92-.56,34.9,9.5,40.44,34.74,2.94,13.4-.16,26-5.75,38.33a44.58,44.58,0,0,0-4,16.26c-.34,8.82,5.2,12.61,13.8,11.4,42.51-6,81.93-21.63,120.92-38.58,11.68-5.07,15.12-5.61,21.92,8.61A43.15,43.15,0,0,1,455.34,550.61ZM287,529.36c0-1.66.09-3.34,0-5-.7-11.35-6.67-19-16.48-21.12a51.33,51.33,0,0,0-31.3,3c-21.91,9.2-27,32.14-10.82,49.58,14.3,15.41,38.13,15.17,50.33.18C285,548.24,287,539.08,287,529.36Z" transform="translate(-112 -134)"/><path class="cls-1" d="M467.29,563.85c-4.37,8.09-7.91,14.8-11.59,21.44q-30.34,54.88-60.65,109.8c-.86,1.56-1.22,4.69-.3,5.67a9.9,9.9,0,0,0,6.59,3c3.59-.06,7.12-1.6,10.73-2.15,18.46-2.77,34.92,2.24,48.25,14.94,12.06,11.49,12.38,45.53-8.61,58.87-15.64,9.93-32.28,16.83-50.69,18.37-22.69,1.89-41.76-9.55-47.33-31.88-2.4-9.65-1.47-19.55,1.39-29.1,7.06-23.52,18.88-44.67,32-65.32s25.18-41.57,37.51-62.52c6.76-11.48,12.94-23.3,19.77-34.74,1.2-2,4.15-3.55,6.57-4.11C455.79,565,460.87,564.69,467.29,563.85ZM402.07,773.64l.1-.36c2.64-.22,5.29-.42,7.94-.65,11.63-1,20.18-8.19,29-14.65,10.45-7.65,10.24-22.25.11-30.56-13.62-11.17-42.27-12.5-59.4.57-8.27,6.31-12.14,13.64-10.92,24,1.11,9.32,6.64,16.62,15.49,18.75C390.19,772.09,396.17,772.69,402.07,773.64Z" transform="translate(-112 -134)"/><path class="cls-1" d="M515.11,534c10.42-16.27,19.72-32.83,39-41.75C593.4,474,632.21,454.77,670.73,435c34.21-17.56,67.84-36.28,101.58-54.75,23.51-12.87,46.76-26.2,70.19-39.21,1.13-.63,2.9-.11,4.37-.12-.72,1.24-1.13,3-2.2,3.67-25.83,17.09-51.54,34.37-77.66,51-49.42,31.5-98.26,64-150.6,90.63-24.63,12.52-49.82,23.92-74.72,35.9-5.1,2.45-10,5.25-15.07,7.82-3.51,1.8-7.07,3.48-10.62,5.21Z" transform="translate(-112 -134)"/><path class="cls-1" d="M348.77,878.29c-4.48-10.5-6.77-21.46-4.19-32.46,2.84-12.08,6.89-23.89,10.71-35.71,1.34-4.16,4.49-7.9,9-7.31,3.38.44,7.15,2.86,9.43,5.52,2.69,3.13-.33,6.42-2.58,8.71-10.78,10.94-15.23,24.75-18.22,39.25C351.43,863.59,350.15,871,348.77,878.29Z" transform="translate(-112 -134)"/><path d="M505.17,515.85c.32,6-3.37,10-7.87,13.36-5.15,3.85-10.78,6.63-17.55,5.07-6-1.36-8.79-5-8.69-11,.15-8.53,7.44-18.18,15.61-20.65C496.3,499.74,505.07,505.87,505.17,515.85Z" transform="translate(-112 -134)"/><path d="M287,529.36c0,9.72-2,18.88-8.28,26.62-12.2,15-36,15.23-50.33-.18-16.2-17.44-11.09-40.38,10.82-49.58a51.33,51.33,0,0,1,31.3-3c9.81,2.1,15.78,9.77,16.48,21.12C287.1,526,287,527.7,287,529.36Zm-35.42,27.77c12.46,0,25-12.46,24.9-24.68-.11-9.43-9.93-20.34-18.36-20.41-14.87-.12-27.73,11.18-27.79,24.42C230.29,547.88,239.8,557.12,251.59,557.13Z" transform="translate(-112 -134)"/><path d="M402.07,773.64c-5.9-.95-11.88-1.55-17.67-2.95-8.85-2.13-14.38-9.43-15.49-18.75-1.22-10.31,2.65-17.64,10.92-24,17.13-13.07,45.78-11.74,59.4-.57,10.13,8.31,10.34,22.91-.11,30.56-8.83,6.46-17.38,13.66-29,14.65-2.65.23-5.3.43-7.94.65Zm-1.22-12.35c11.17-1.23,19-4.89,25.56-11.16,6.16-5.9,5.06-11.43-2.78-15-12.25-5.64-29.2-1.37-37.41,9.3-2.82,3.66-2.24,7.4,1,9.64C391.86,757.26,397.24,759.42,400.85,761.29Z" transform="translate(-112 -134)"/><path class="cls-1" d="M251.59,557.13c-11.79,0-21.3-9.25-21.25-20.67.06-13.24,12.92-24.54,27.79-24.42,8.43.07,18.25,11,18.36,20.41C276.63,544.67,264.05,557.14,251.59,557.13Z" transform="translate(-112 -134)"/><path class="cls-1" d="M400.85,761.29c-3.61-1.87-9-4-13.63-7.26-3.24-2.24-3.82-6-1-9.64,8.21-10.67,25.16-14.94,37.41-9.3,7.84,3.61,8.94,9.14,2.78,15C419.86,756.4,412,760.06,400.85,761.29Z" transform="translate(-112 -134)"/></svg>